# leaf_blob_a — generated by orchard_scene/tools/meshgen.py
mtllib ../materials/materials.mtl
o leaf_blob_a
v -0.497034 0.749921 0.000000
v 0.514237 0.972162 0.000000
v -0.544810 -0.868775 0.000000
v 0.602621 -0.786548 0.000000
v 0.000000 -0.499369 0.881433
v 0.000000 0.479222 0.873263
v 0.000000 -0.588475 -0.851303
v 0.000000 0.511922 -0.769679
v 0.777569 0.000000 -0.557984
v 0.830551 0.000000 0.605684
v -0.722644 0.000000 -0.573625
v -0.839812 0.000000 0.553669
v -0.798694 0.477859 0.344884
v -0.489449 0.340376 0.783305
v -0.295505 0.806032 0.505123
v 0.264479 0.689455 0.516004
v 0.000000 1.116084 0.000000
v 0.263595 0.710309 -0.476562
v -0.290283 0.862941 -0.529600
v -0.500992 0.288334 -0.793437
v -0.924075 0.566862 -0.281262
v -1.041506 0.000000 0.000000
v 0.470516 0.314944 0.853366
v 0.815026 0.566385 0.333114
v -0.567641 -0.264494 0.774212
v 0.000000 0.000000 1.075215
v -0.739538 -0.534656 -0.328545
v -0.733799 -0.503457 0.349526
v 0.000000 0.000000 -1.127184
v -0.531025 -0.271678 -0.878263
v 0.692442 0.488697 -0.324242
v 0.472807 0.323705 -0.730567
v 0.848725 -0.527025 0.300806
v 0.558268 -0.281650 0.916837
v 0.275511 -0.807772 0.433707
v -0.350507 -0.687724 0.515150
v 0.000000 -0.956965 0.000000
v -0.335886 -0.725832 -0.435201
v 0.339907 -0.917124 -0.484449
v 0.433226 -0.332135 -0.788408
v 0.853205 -0.506996 -0.268409
v 1.026627 0.000000 0.000000
v -0.647797 0.595896 0.148618
v -0.607484 0.766278 0.479451
v -0.417498 0.837036 0.293273
v -0.692363 0.162781 0.629284
v -0.732849 0.484163 0.645049
v -0.965192 0.251131 0.374275
v -0.155952 0.769584 0.699102
v -0.452959 0.508254 0.729709
v -0.277755 0.382316 0.984009
v -0.172345 0.828927 0.247096
v -0.274945 0.818997 0.000000
v 0.147578 0.641494 0.775390
v 0.000000 0.800814 0.468349
v 0.272542 0.910011 0.000000
v 0.141821 1.033562 0.227099
v 0.421951 0.943465 0.269155
v -0.181415 0.859631 -0.233300
v -0.403220 0.879114 -0.232294
v 0.427110 0.986878 -0.227355
v 0.152667 0.896162 -0.224068
v -0.143280 0.676956 -0.653742
v 0.000000 0.878542 -0.456211
v 0.142049 0.583014 -0.767479
v -0.565174 0.730291 -0.480880
v -0.657139 0.605523 -0.139594
v -0.256507 0.417143 -0.979067
v -0.471915 0.510716 -0.706445
v -0.808493 0.259152 -0.487849
v -0.744858 0.399849 -0.603106
v -0.786914 0.137180 -0.785390
v -0.952555 0.580090 0.000000
v -0.937426 0.000000 -0.239089
v -1.085256 0.236150 -0.182002
v -0.812087 0.295016 0.160710
v -0.942870 0.000000 0.233325
v 0.669250 0.754715 0.487515
v 0.725966 0.600947 0.137848
v 0.223976 0.442416 0.842018
v 0.438437 0.594835 0.655222
v 0.787203 0.286989 0.378445
v 0.594997 0.382246 0.640452
v 0.694278 0.170433 0.709221
v -0.230617 0.158249 1.068641
v 0.000000 0.300776 0.993011
v -0.611510 -0.137414 0.735123
v -0.469380 0.000000 0.964301
v 0.000000 -0.287218 1.108879
v -0.243845 -0.137038 1.042637
v -0.221677 -0.483483 0.760558
v -0.909596 -0.244798 0.165831
v -0.958773 -0.244685 0.434970
v -0.881682 -0.244255 -0.364587
v -0.847970 -0.292846 -0.164785
v -0.630762 -0.651085 0.164127
v -0.949020 -0.446298 0.000000
v -0.758312 -0.636970 -0.136158
v -0.493900 0.000000 -0.754936
v -0.635637 -0.159150 -0.646671
v 0.000000 0.295028 -1.057240
v -0.263039 0.147947 -0.866021
v -0.233451 -0.403501 -0.956977
v -0.264957 -0.152476 -0.815708
v 0.000000 -0.248828 -1.086008
v 0.466219 0.494903 -0.666064
v 0.289542 0.383563 -0.842968
v 0.675001 0.621408 -0.138931
v 0.520627 0.790387 -0.486916
v 0.804136 0.135551 -0.768169
v 0.771317 0.472212 -0.495427
v 0.785426 0.297489 -0.398377
v 0.663761 -0.787514 0.152725
v 0.649539 -0.745425 0.487567
v 0.436168 -0.807594 0.258817
v 0.633904 -0.159498 0.634195
v 0.612182 -0.470431 0.538560
v 0.903975 -0.219793 0.441506
v 0.159466 -0.686465 0.656028
v 0.486192 -0.537925 0.770625
v 0.243285 -0.415339 0.809310
v 0.158548 -0.941360 0.223613
v 0.301958 -1.069121 0.000000
v -0.177383 -0.738176 0.678401
v 0.000000 -0.977387 0.476316
v -0.254094 -0.815154 0.000000
v -0.143342 -1.050773 0.238071
v -0.393763 -0.954554 0.243562
v 0.174516 -0.840200 -0.230728
v 0.417597 -0.828219 -0.256017
v -0.416697 -0.955983 -0.254365
v -0.158820 -0.894346 -0.268939
v 0.143469 -0.584312 -0.713435
v 0.000000 -0.765670 -0.606828
v -0.153191 -0.754446 -0.662702
v 0.573123 -0.755296 -0.365234
v 0.787243 -0.799394 -0.181638
v 0.299585 -0.423856 -0.879009
v 0.441722 -0.552076 -0.779789
v 0.959521 -0.294793 -0.424719
v 0.629174 -0.426099 -0.518509
v 0.603728 -0.180981 -0.729366
v 0.727942 -0.527627 0.000000
v 1.097011 0.000000 -0.267840
v 1.060687 -0.284362 -0.182121
v 0.938630 -0.255024 0.185079
v 0.958442 0.000000 0.298301
v 0.281040 -0.180290 1.071165
v 0.587700 0.000000 0.763409
v 0.227354 0.182929 0.826922
v -0.648313 -0.785119 0.365419
v -0.413880 -0.527729 0.654149
v -0.723841 -0.468715 0.590692
v -0.432800 -0.501959 -0.637881
v -0.666581 -0.762463 -0.419094
v -0.798162 -0.381586 -0.538925
v 0.552134 0.000000 -0.856057
v 0.225220 -0.186743 -1.004236
v 0.263151 0.151191 -0.996526
v 0.945333 0.304179 0.145033
v 1.085800 0.270792 -0.152073
v 0.962521 0.452991 0.000000
vn -0.575589 0.815999 0.053318
vn 0.648065 0.761315 0.020283
vn -0.497983 -0.859950 0.111800
vn 0.429769 -0.902471 0.029062
vn 0.056739 -0.651406 0.756605
vn 0.120565 0.525075 0.842473
vn 0.124565 -0.683118 -0.719606
vn 0.142253 0.696775 -0.703042
vn 0.807796 0.041140 -0.588025
vn 0.798950 0.094097 0.593991
vn -0.898345 -0.150791 -0.412599
vn -0.789100 0.064501 0.610868
vn -0.830603 0.547359 0.102458
vn -0.618142 0.231312 0.751263
vn -0.156508 0.903511 0.398965
vn 0.100238 0.777734 0.620549
vn -0.239485 0.964119 -0.114550
vn 0.113938 0.774314 -0.622459
vn -0.177010 0.834952 -0.521078
vn -0.399269 0.135469 -0.906770
vn -0.707525 0.603487 -0.367712
vn -0.983986 -0.123574 0.128455
vn 0.368615 0.204777 0.906746
vn 0.861634 0.301009 0.408633
vn -0.445721 -0.464730 0.765088
vn 0.216442 0.247593 0.944378
vn -0.921069 -0.332095 -0.203335
vn -0.840559 -0.527129 0.124881
vn -0.283451 0.002093 -0.958985
vn -0.524882 -0.145088 -0.838718
vn 0.743569 0.612297 -0.268696
vn 0.398364 0.457141 -0.795190
vn 0.884572 -0.422657 0.197216
vn 0.680574 -0.290414 0.672665
vn 0.271331 -0.843586 0.463403
vn -0.366600 -0.708485 0.603037
vn -0.183889 -0.949668 -0.253605
vn -0.173523 -0.768902 -0.615369
vn 0.136183 -0.872859 -0.468584
vn 0.640929 -0.262541 -0.721306
vn 0.758222 -0.551255 -0.348162
vn 0.957009 -0.026891 0.288810
vn -0.540039 0.841270 -0.024943
vn -0.557223 0.773735 0.301391
vn -0.342772 0.937131 -0.065528
vn -0.695276 0.058621 0.716349
vn -0.688129 0.318304 0.652043
vn -0.940477 0.195423 0.278050
vn -0.129100 0.756329 0.641327
vn -0.393894 0.588004 0.706469
vn -0.262808 0.509058 0.819629
vn -0.339657 0.891634 0.299369
vn -0.426390 0.902074 0.066746
vn 0.267731 0.757965 0.594819
vn 0.061693 0.911089 0.407568
vn 0.176357 0.978520 -0.106755
vn 0.021183 0.877146 0.479757
vn 0.380633 0.870854 0.311017
vn -0.183026 0.963358 -0.196069
vn -0.431710 0.899856 0.062343
vn 0.272116 0.896208 -0.350377
vn 0.058608 0.903367 -0.424845
vn -0.055696 0.682494 -0.728766
vn 0.167339 0.881233 -0.442070
vn 0.216888 0.690269 -0.690282
vn -0.550032 0.752551 -0.362121
vn -0.446567 0.890219 0.089932
vn -0.278942 0.473769 -0.835305
vn -0.403110 0.560374 -0.723521
vn -0.868000 -0.049229 -0.494117
vn -0.617919 0.443628 -0.649131
vn -0.665063 -0.082164 -0.742254
vn -0.733545 0.603263 0.313027
vn -0.861324 -0.214244 -0.460674
vn -0.994802 0.068607 -0.075243
vn -0.935852 0.189261 0.297257
vn -0.987512 0.092939 0.127213
vn 0.519432 0.686680 0.508588
vn 0.725314 0.687439 -0.036722
vn 0.290845 0.319665 0.901789
vn 0.346092 0.607061 0.715330
vn 0.830212 0.283423 0.480020
vn 0.729003 0.281777 0.623824
vn 0.727123 0.208983 0.653925
vn -0.302353 0.188812 0.934309
vn 0.347851 0.303852 0.886946
vn -0.700445 -0.046994 0.712158
vn -0.669342 0.052694 0.741083
vn -0.065612 -0.509864 0.857749
vn -0.383296 -0.364471 0.848673
vn -0.413139 -0.541824 0.731945
vn -0.954820 -0.292958 0.049939
vn -0.886837 -0.240103 0.394804
vn -0.925167 -0.129086 -0.356934
vn -0.946119 -0.248890 -0.207152
vn -0.755683 -0.647803 0.096414
vn -0.896823 -0.441003 0.034997
vn -0.756473 -0.653247 0.031873
vn -0.262998 -0.040361 -0.963952
vn -0.763361 0.004147 -0.645959
vn 0.003925 0.447056 -0.894497
vn -0.535278 -0.136824 -0.833520
vn -0.417238 -0.411366 -0.810365
vn -0.489144 0.132399 -0.862095
vn -0.119388 -0.307947 -0.943883
vn 0.343011 0.541592 -0.767477
vn 0.356158 0.544380 -0.759475
vn 0.795452 0.574472 -0.192969
vn 0.557105 0.662661 -0.500515
vn 0.755235 0.147622 -0.638614
vn 0.691844 0.512130 -0.508994
vn 0.845310 0.300516 -0.441748
vn 0.706309 -0.705372 0.059812
vn 0.518329 -0.711293 0.474760
vn 0.336101 -0.889689 0.309013
vn 0.733838 -0.240555 0.635307
vn 0.781063 -0.235292 0.578428
vn 0.765800 -0.287542 0.575213
vn 0.211476 -0.650931 0.729086
vn 0.294196 -0.629786 0.718901
vn 0.186915 -0.636725 0.748093
vn 0.273929 -0.926952 0.256366
vn 0.268288 -0.960192 -0.077804
vn -0.241030 -0.632405 0.736185
vn 0.023976 -0.838846 0.543841
vn -0.126159 -0.980980 -0.147522
vn -0.223103 -0.970539 0.090992
vn -0.408925 -0.903182 0.130546
vn -0.060801 -0.953134 -0.296377
vn 0.286773 -0.936175 -0.203318
vn -0.246920 -0.956143 -0.157545
vn -0.016338 -0.961171 -0.275468
vn 0.097422 -0.686164 -0.720894
vn -0.103188 -0.908923 -0.403995
vn -0.308281 -0.769642 -0.559119
vn 0.649909 -0.553774 -0.520532
vn 0.728589 -0.684310 -0.029638
vn 0.344029 -0.504586 -0.791856
vn 0.518312 -0.495285 -0.697169
vn 0.678831 -0.307847 -0.666648
vn 0.643223 -0.440863 -0.626023
vn 0.623335 -0.380814 -0.682960
vn 0.877469 -0.463834 0.122087
vn 0.863444 0.131592 -0.486978
vn 0.877421 -0.461384 0.131367
vn 0.919408 -0.363234 0.150829
vn 0.934233 0.130073 0.332100
vn 0.405849 0.097466 0.908728
vn 0.535199 0.196240 0.821615
vn 0.380474 0.263366 0.886498
vn -0.566058 -0.703843 0.429166
vn -0.315146 -0.572512 0.756910
vn -0.619114 -0.444320 0.647516
vn -0.417879 -0.642961 -0.641856
vn -0.502397 -0.645243 -0.575551
vn -0.724875 -0.336491 -0.601107
vn 0.480555 -0.005358 -0.876948
vn 0.478202 -0.176225 -0.860388
vn 0.476561 0.230812 -0.848302
vn 0.893974 0.162387 0.417661
vn 0.886349 0.403244 -0.227551
vn 0.712916 0.694302 -0.098463
usemtl leaf_a
f 1//1 43//43 45//45
f 13//13 44//44 43//43
f 15//15 45//45 44//44
f 43//43 44//44 45//45
f 12//12 46//46 48//48
f 14//14 47//47 46//46
f 13//13 48//48 47//47
f 46//46 47//47 48//48
f 6//6 49//49 51//51
f 15//15 50//50 49//49
f 14//14 51//51 50//50
f 49//49 50//50 51//51
f 13//13 47//47 44//44
f 14//14 50//50 47//47
f 15//15 44//44 50//50
f 47//47 50//50 44//44
f 1//1 45//45 53//53
f 15//15 52//52 45//45
f 17//17 53//53 52//52
f 45//45 52//52 53//53
f 6//6 54//54 49//49
f 16//16 55//55 54//54
f 15//15 49//49 55//55
f 54//54 55//55 49//49
f 2//2 56//56 58//58
f 17//17 57//57 56//56
f 16//16 58//58 57//57
f 56//56 57//57 58//58
f 15//15 55//55 52//52
f 16//16 57//57 55//55
f 17//17 52//52 57//57
f 55//55 57//57 52//52
f 1//1 53//53 60//60
f 17//17 59//59 53//53
f 19//19 60//60 59//59
f 53//53 59//59 60//60
f 2//2 61//61 56//56
f 18//18 62//62 61//61
f 17//17 56//56 62//62
f 61//61 62//62 56//56
f 8//8 63//63 65//65
f 19//19 64//64 63//63
f 18//18 65//65 64//64
f 63//63 64//64 65//65
f 17//17 62//62 59//59
f 18//18 64//64 62//62
f 19//19 59//59 64//64
f 62//62 64//64 59//59
f 1//1 60//60 67//67
f 19//19 66//66 60//60
f 21//21 67//67 66//66
f 60//60 66//66 67//67
f 8//8 68//68 63//63
f 20//20 69//69 68//68
f 19//19 63//63 69//69
f 68//68 69//69 63//63
f 11//11 70//70 72//72
f 21//21 71//71 70//70
f 20//20 72//72 71//71
f 70//70 71//71 72//72
f 19//19 69//69 66//66
f 20//20 71//71 69//69
f 21//21 66//66 71//71
f 69//69 71//71 66//66
f 1//1 67//67 43//43
f 21//21 73//73 67//67
f 13//13 43//43 73//73
f 67//67 73//73 43//43
f 11//11 74//74 70//70
f 22//22 75//75 74//74
f 21//21 70//70 75//75
f 74//74 75//75 70//70
f 12//12 48//48 77//77
f 13//13 76//76 48//48
f 22//22 77//77 76//76
f 48//48 76//76 77//77
f 21//21 75//75 73//73
f 22//22 76//76 75//75
f 13//13 73//73 76//76
f 75//75 76//76 73//73
f 2//2 58//58 79//79
f 16//16 78//78 58//58
f 24//24 79//79 78//78
f 58//58 78//78 79//79
f 6//6 80//80 54//54
f 23//23 81//81 80//80
f 16//16 54//54 81//81
f 80//80 81//81 54//54
f 10//10 82//82 84//84
f 24//24 83//83 82//82
f 23//23 84//84 83//83
f 82//82 83//83 84//84
f 16//16 81//81 78//78
f 23//23 83//83 81//81
f 24//24 78//78 83//83
f 81//81 83//83 78//78
f 6//6 51//51 86//86
f 14//14 85//85 51//51
f 26//26 86//86 85//85
f 51//51 85//85 86//86
f 12//12 87//87 46//46
f 25//25 88//88 87//87
f 14//14 46//46 88//88
f 87//87 88//88 46//46
f 5//5 89//89 91//91
f 26//26 90//90 89//89
f 25//25 91//91 90//90
f 89//89 90//90 91//91
f 14//14 88//88 85//85
f 25//25 90//90 88//88
f 26//26 85//85 90//90
f 88//88 90//90 85//85
f 12//12 77//77 93//93
f 22//22 92//92 77//77
f 28//28 93//93 92//92
f 77//77 92//92 93//93
f 11//11 94//94 74//74
f 27//27 95//95 94//94
f 22//22 74//74 95//95
f 94//94 95//95 74//74
f 3//3 96//96 98//98
f 28//28 97//97 96//96
f 27//27 98//98 97//97
f 96//96 97//97 98//98
f 22//22 95//95 92//92
f 27//27 97//97 95//95
f 28//28 92//92 97//97
f 95//95 97//97 92//92
f 11//11 72//72 100//100
f 20//20 99//99 72//72
f 30//30 100//100 99//99
f 72//72 99//99 100//100
f 8//8 101//101 68//68
f 29//29 102//102 101//101
f 20//20 68//68 102//102
f 101//101 102//102 68//68
f 7//7 103//103 105//105
f 30//30 104//104 103//103
f 29//29 105//105 104//104
f 103//103 104//104 105//105
f 20//20 102//102 99//99
f 29//29 104//104 102//102
f 30//30 99//99 104//104
f 102//102 104//104 99//99
f 8//8 65//65 107//107
f 18//18 106//106 65//65
f 32//32 107//107 106//106
f 65//65 106//106 107//107
f 2//2 108//108 61//61
f 31//31 109//109 108//108
f 18//18 61//61 109//109
f 108//108 109//109 61//61
f 9//9 110//110 112//112
f 32//32 111//111 110//110
f 31//31 112//112 111//111
f 110//110 111//111 112//112
f 18//18 109//109 106//106
f 31//31 111//111 109//109
f 32//32 106//106 111//111
f 109//109 111//111 106//106
f 4//4 113//113 115//115
f 33//33 114//114 113//113
f 35//35 115//115 114//114
f 113//113 114//114 115//115
f 10//10 116//116 118//118
f 34//34 117//117 116//116
f 33//33 118//118 117//117
f 116//116 117//117 118//118
f 5//5 119//119 121//121
f 35//35 120//120 119//119
f 34//34 121//121 120//120
f 119//119 120//120 121//121
f 33//33 117//117 114//114
f 34//34 120//120 117//117
f 35//35 114//114 120//120
f 117//117 120//120 114//114
f 4//4 115//115 123//123
f 35//35 122//122 115//115
f 37//37 123//123 122//122
f 115//115 122//122 123//123
f 5//5 124//124 119//119
f 36//36 125//125 124//124
f 35//35 119//119 125//125
f 124//124 125//125 119//119
f 3//3 126//126 128//128
f 37//37 127//127 126//126
f 36//36 128//128 127//127
f 126//126 127//127 128//128
f 35//35 125//125 122//122
f 36//36 127//127 125//125
f 37//37 122//122 127//127
f 125//125 127//127 122//122
f 4//4 123//123 130//130
f 37//37 129//129 123//123
f 39//39 130//130 129//129
f 123//123 129//129 130//130
f 3//3 131//131 126//126
f 38//38 132//132 131//131
f 37//37 126//126 132//132
f 131//131 132//132 126//126
f 7//7 133//133 135//135
f 39//39 134//134 133//133
f 38//38 135//135 134//134
f 133//133 134//134 135//135
f 37//37 132//132 129//129
f 38//38 134//134 132//132
f 39//39 129//129 134//134
f 132//132 134//134 129//129
f 4//4 130//130 137//137
f 39//39 136//136 130//130
f 41//41 137//137 136//136
f 130//130 136//136 137//137
f 7//7 138//138 133//133
f 40//40 139//139 138//138
f 39//39 133//133 139//139
f 138//138 139//139 133//133
f 9//9 140//140 142//142
f 41//41 141//141 140//140
f 40//40 142//142 141//141
f 140//140 141//141 142//142
f 39//39 139//139 136//136
f 40//40 141//141 139//139
f 41//41 136//136 141//141
f 139//139 141//141 136//136
f 4//4 137//137 113//113
f 41//41 143//143 137//137
f 33//33 113//113 143//143
f 137//137 143//143 113//113
f 9//9 144//144 140//140
f 42//42 145//145 144//144
f 41//41 140//140 145//145
f 144//144 145//145 140//140
f 10//10 118//118 147//147
f 33//33 146//146 118//118
f 42//42 147//147 146//146
f 118//118 146//146 147//147
f 41//41 145//145 143//143
f 42//42 146//146 145//145
f 33//33 143//143 146//146
f 145//145 146//146 143//143
f 5//5 121//121 89//89
f 34//34 148//148 121//121
f 26//26 89//89 148//148
f 121//121 148//148 89//89
f 10//10 84//84 116//116
f 23//23 149//149 84//84
f 34//34 116//116 149//149
f 84//84 149//149 116//116
f 6//6 86//86 80//80
f 26//26 150//150 86//86
f 23//23 80//80 150//150
f 86//86 150//150 80//80
f 34//34 149//149 148//148
f 23//23 150//150 149//149
f 26//26 148//148 150//150
f 149//149 150//150 148//148
f 3//3 128//128 96//96
f 36//36 151//151 128//128
f 28//28 96//96 151//151
f 128//128 151//151 96//96
f 5//5 91//91 124//124
f 25//25 152//152 91//91
f 36//36 124//124 152//152
f 91//91 152//152 124//124
f 12//12 93//93 87//87
f 28//28 153//153 93//93
f 25//25 87//87 153//153
f 93//93 153//153 87//87
f 36//36 152//152 151//151
f 25//25 153//153 152//152
f 28//28 151//151 153//153
f 152//152 153//153 151//151
f 7//7 135//135 103//103
f 38//38 154//154 135//135
f 30//30 103//103 154//154
f 135//135 154//154 103//103
f 3//3 98//98 131//131
f 27//27 155//155 98//98
f 38//38 131//131 155//155
f 98//98 155//155 131//131
f 11//11 100//100 94//94
f 30//30 156//156 100//100
f 27//27 94//94 156//156
f 100//100 156//156 94//94
f 38//38 155//155 154//154
f 27//27 156//156 155//155
f 30//30 154//154 156//156
f 155//155 156//156 154//154
f 9//9 142//142 110//110
f 40//40 157//157 142//142
f 32//32 110//110 157//157
f 142//142 157//157 110//110
f 7//7 105//105 138//138
f 29//29 158//158 105//105
f 40//40 138//138 158//158
f 105//105 158//158 138//138
f 8//8 107//107 101//101
f 32//32 159//159 107//107
f 29//29 101//101 159//159
f 107//107 159//159 101//101
f 40//40 158//158 157//157
f 29//29 159//159 158//158
f 32//32 157//157 159//159
f 158//158 159//159 157//157
f 10//10 147//147 82//82
f 42//42 160//160 147//147
f 24//24 82//82 160//160
f 147//147 160//160 82//82
f 9//9 112//112 144//144
f 31//31 161//161 112//112
f 42//42 144//144 161//161
f 112//112 161//161 144//144
f 2//2 79//79 108//108
f 24//24 162//162 79//79
f 31//31 108//108 162//162
f 79//79 162//162 108//108
f 42//42 161//161 160//160
f 31//31 162//162 161//161
f 24//24 160//160 162//162
f 161//161 162//162 160//160
