# leaf_blob_b — generated by orchard_scene/tools/meshgen.py
mtllib ../materials/materials.mtl
o leaf_blob_b
v -0.504202 0.922934 0.000000
v 0.530626 0.865949 0.000000
v -0.585583 -0.903281 0.000000
v 0.453620 -0.981118 0.000000
v 0.000000 -0.522280 0.906411
v 0.000000 0.476511 0.719813
v 0.000000 -0.478984 -0.740440
v 0.000000 0.537476 -0.811648
v 0.870539 0.000000 -0.570381
v 0.789391 0.000000 0.539503
v -0.822622 0.000000 -0.536447
v -0.924370 0.000000 0.477623
v -0.812468 0.551349 0.354479
v -0.565419 0.352196 0.931707
v -0.283386 0.792577 0.538878
v 0.299721 0.721381 0.451146
v 0.000000 1.113815 0.000000
v 0.353490 0.765414 -0.509980
v -0.294118 0.901835 -0.513318
v -0.536515 0.302797 -0.799757
v -0.706000 0.441634 -0.291257
v -0.961515 0.000000 0.000000
v 0.570385 0.306456 0.874800
v 0.934147 0.497744 0.299018
v -0.565508 -0.334978 0.706184
v 0.000000 0.000000 1.126245
v -0.744061 -0.440559 -0.277516
v -0.805498 -0.544262 0.301703
v 0.000000 0.000000 -1.103512
v -0.515183 -0.343806 -0.830307
v 0.706235 0.478371 -0.292531
v 0.455684 0.325366 -0.926920
v 0.841783 -0.470430 0.295190
v 0.481969 -0.341155 0.870450
v 0.338325 -0.808133 0.519140
v -0.306090 -0.898308 0.482155
v 0.000000 -0.921118 0.000000
v -0.267250 -0.922819 -0.442096
v 0.315988 -0.884804 -0.559487
v 0.421011 -0.277729 -0.878932
v 0.731748 -0.449178 -0.320910
v 1.102819 0.000000 0.000000
v -0.589411 0.800002 0.138858
v -0.576760 0.648666 0.380462
v -0.473628 0.868975 0.249392
v -0.603394 0.157410 0.785887
v -0.734093 0.482456 0.668916
v -0.937248 0.269602 0.490817
v -0.167172 0.596571 0.789914
v -0.466076 0.568153 0.758052
v -0.265696 0.394827 0.810065
v -0.154812 0.902279 0.280326
v -0.304489 0.958916 0.000000
v 0.155103 0.656588 0.719846
v 0.000000 0.933543 0.598797
v 0.245697 0.811954 0.000000
v 0.148121 0.873474 0.276901
v 0.442726 0.762953 0.300964
v -0.159101 0.840635 -0.302240
v -0.403946 0.828219 -0.246217
v 0.464691 0.749798 -0.225332
v 0.163562 0.989990 -0.242527
v -0.153174 0.688664 -0.774583
v 0.000000 0.977169 -0.557527
v 0.154002 0.628699 -0.780672
v -0.559233 0.794952 -0.472936
v -0.609112 0.709827 -0.145496
v -0.264306 0.457839 -0.759693
v -0.426446 0.648938 -0.726228
v -0.768641 0.275716 -0.494202
v -0.738230 0.383956 -0.680443
v -0.798245 0.169385 -0.743382
v -0.910704 0.600852 0.000000
v -1.085513 0.000000 -0.316826
v -1.076444 0.279933 -0.162235
v -0.882153 0.226281 0.147156
v -1.065655 0.000000 0.313940
v 0.609145 0.740853 0.387136
v 0.608088 0.778544 0.171169
v 0.283450 0.499796 0.812355
v 0.420649 0.567085 0.600807
v 0.726929 0.290324 0.494027
v 0.694231 0.426629 0.538279
v 0.665651 0.144329 0.788327
v -0.227628 0.180134 0.929290
v 0.000000 0.244945 0.820997
v -0.702874 -0.149255 0.766699
v -0.572068 0.000000 0.769722
v 0.000000 -0.255351 0.953445
v -0.276007 -0.161882 0.949055
v -0.294949 -0.386579 0.917257
v -1.057237 -0.276370 0.160870
v -0.724689 -0.237885 0.389210
v -0.725986 -0.252603 -0.420835
v -0.912189 -0.258878 -0.179241
v -0.709477 -0.669970 0.137947
v -0.956621 -0.523683 0.000000
v -0.622425 -0.685498 -0.157901
v -0.595946 0.000000 -0.840675
v -0.629892 -0.182789 -0.791405
v 0.000000 0.240095 -0.983869
v -0.268142 0.159230 -1.080711
v -0.232640 -0.397550 -0.957058
v -0.225945 -0.176910 -0.874685
v 0.000000 -0.235735 -0.882464
v 0.401361 0.667510 -0.590159
v 0.287720 0.442107 -0.780338
v 0.631134 0.675775 -0.163260
v 0.578729 0.774247 -0.440328
v 0.720336 0.155918 -0.648943
v 0.655957 0.489431 -0.577807
v 0.940202 0.267417 -0.372939
v 0.598532 -0.667258 0.159566
v 0.653204 -0.713332 0.399585
v 0.379638 -0.760747 0.255489
v 0.713538 -0.149353 0.775452
v 0.678284 -0.404796 0.523328
v 0.992784 -0.240583 0.483627
v 0.176095 -0.759928 0.689127
v 0.379180 -0.522805 0.651873
v 0.247657 -0.401845 0.882663
v 0.173373 -0.988554 0.279923
v 0.296697 -1.088817 0.000000
v -0.169967 -0.782746 0.606512
v 0.000000 -0.885089 0.552619
v -0.269701 -0.821501 0.000000
v -0.161270 -0.864027 0.282587
v -0.364849 -0.728175 0.220446
v 0.153233 -1.004949 -0.236897
v 0.488004 -0.997987 -0.247247
v -0.406162 -0.947294 -0.222141
v -0.187276 -1.034440 -0.295955
v 0.177272 -0.585049 -0.671589
v 0.000000 -0.857754 -0.545052
v -0.157720 -0.602767 -0.769233
v 0.629992 -0.773159 -0.429927
v 0.683464 -0.649085 -0.142577
v 0.264260 -0.407195 -0.808914
v 0.398593 -0.526494 -0.589651
v 0.915776 -0.236110 -0.480133
v 0.672531 -0.450287 -0.535054
v 0.674001 -0.135948 -0.596906
v 0.949349 -0.454391 0.000000
v 0.928453 0.000000 -0.302205
v 0.869111 -0.297826 -0.165224
v 1.043326 -0.250047 0.165782
v 1.049970 0.000000 0.254809
v 0.268588 -0.144727 0.822919
v 0.471393 0.000000 0.730618
v 0.234883 0.157497 0.845097
v -0.624736 -0.597140 0.388897
v -0.448707 -0.648927 0.746605
v -0.679971 -0.407218 0.559977
v -0.479872 -0.613222 -0.730103
v -0.663172 -0.701007 -0.444883
v -0.584507 -0.459874 -0.617505
v 0.585631 0.000000 -0.730324
v 0.238477 -0.153251 -1.023563
v 0.233348 0.172642 -0.898503
v 1.075256 0.249413 0.185065
v 0.900276 0.251906 -0.140767
v 0.781582 0.483151 0.000000
vn -0.544769 0.821901 -0.166447
vn 0.197999 0.977291 -0.075489
vn -0.384772 -0.878705 0.282540
vn 0.712686 -0.600193 0.363108
vn -0.025246 -0.527280 0.849316
vn 0.004976 0.202126 0.979347
vn 0.255421 -0.468777 -0.845581
vn -0.022619 0.353847 -0.935030
vn 0.767577 -0.014476 -0.640793
vn 0.789333 0.319418 0.524333
vn -0.837310 -0.234306 -0.493976
vn -0.760942 -0.248296 0.599430
vn -0.787086 0.563822 0.250199
vn -0.301959 0.166114 0.938737
vn -0.411256 0.784478 0.464180
vn 0.433626 0.787444 0.438064
vn 0.096916 0.994477 0.040288
vn 0.452900 0.792671 -0.408109
vn -0.279864 0.905611 -0.318660
vn -0.369160 0.368208 -0.853314
vn -0.763594 0.547490 -0.342315
vn -0.998770 0.009180 0.048725
vn 0.375286 0.286189 0.881622
vn 0.797775 0.548191 0.251079
vn -0.555514 -0.193851 0.808595
vn 0.203504 0.152263 0.967162
vn -0.829512 -0.333346 -0.448096
vn -0.714573 -0.438221 0.545296
vn 0.042935 -0.173057 -0.983976
vn -0.472748 -0.149649 -0.868398
vn 0.829620 0.549638 -0.098124
vn 0.434770 0.281622 -0.855373
vn 0.701779 -0.664346 0.257198
vn 0.391624 -0.296585 0.871016
vn 0.459154 -0.768631 0.445402
vn -0.450703 -0.885360 0.114038
vn -0.333527 -0.927797 0.167190
vn -0.258934 -0.771696 -0.580895
vn 0.207010 -0.642580 -0.737725
vn 0.583787 -0.379280 -0.717871
vn 0.842600 -0.468353 -0.265839
vn 0.948696 -0.043828 -0.313137
vn -0.606492 0.777798 0.164917
vn -0.497491 0.774116 0.391467
vn -0.370183 0.852278 0.369576
vn -0.710209 -0.010794 0.703908
vn -0.676031 0.508886 0.532932
vn -0.888291 0.238453 0.392531
vn -0.061608 0.423740 0.903686
vn -0.290370 0.735620 0.612003
vn 0.204528 0.379715 0.902211
vn -0.166316 0.941398 0.293442
vn -0.289362 0.953746 -0.081480
vn 0.340394 0.527029 0.778699
vn 0.116730 0.871222 0.476809
vn 0.442870 0.889469 0.112740
vn 0.407656 0.890628 0.201491
vn 0.121540 0.966255 0.227109
vn -0.292281 0.939452 -0.178890
vn -0.309652 0.941462 -0.133287
vn 0.381640 0.922018 -0.065070
vn 0.352343 0.930736 -0.097898
vn -0.132050 0.487557 -0.863047
vn 0.097487 0.883968 -0.457272
vn 0.309326 0.516802 -0.798269
vn -0.731103 0.650001 -0.207332
vn -0.681086 0.680262 -0.270860
vn -0.167362 0.478744 -0.861855
vn -0.336063 0.480101 -0.810287
vn -0.790879 0.426345 -0.439022
vn -0.787338 0.447911 -0.423645
vn -0.797131 0.057616 -0.601052
vn -0.802243 0.592115 -0.076197
vn -0.886298 -0.200516 -0.417456
vn -0.906498 0.398347 -0.139930
vn -0.956216 0.250796 0.150840
vn -0.972737 0.013809 0.231501
vn 0.406178 0.721392 0.560904
vn 0.672577 0.736349 -0.073689
vn 0.006596 0.414001 0.910252
vn 0.404885 0.712119 0.573545
vn 0.769838 0.146483 0.621203
vn 0.653340 0.452912 0.606644
vn 0.761178 0.098181 0.641068
vn -0.205898 0.223968 0.952599
vn 0.059516 0.531629 0.844884
vn -0.743566 -0.290526 0.602250
vn -0.368188 -0.169492 0.914172
vn 0.153211 -0.264239 0.952210
vn -0.470409 -0.093914 0.877437
vn -0.269363 -0.372982 0.887878
vn -0.944959 -0.215696 0.246025
vn -0.754471 -0.365220 0.545333
vn -0.765752 -0.451787 -0.457726
vn -0.872334 -0.318418 -0.371004
vn -0.527274 -0.807719 0.263766
vn -0.765801 -0.601812 -0.226651
vn -0.761362 -0.614463 -0.206793
vn -0.403561 -0.105687 -0.908828
vn -0.813038 -0.354186 -0.462084
vn 0.142340 0.516708 -0.844247
vn -0.338811 0.177328 -0.923992
vn 0.011543 -0.307728 -0.951404
vn -0.263669 -0.283835 -0.921909
vn -0.025350 -0.520576 -0.853439
vn 0.343689 0.611890 -0.712369
vn 0.155756 0.451497 -0.878573
vn 0.791699 0.597452 -0.127532
vn 0.650404 0.710427 -0.268827
vn 0.690831 0.112644 -0.714187
vn 0.702831 0.483354 -0.521917
vn 0.867956 0.393732 -0.302700
vn 0.643048 -0.753676 0.135874
vn 0.588329 -0.694002 0.415005
vn 0.553282 -0.783695 0.282314
vn 0.577166 -0.138502 0.804796
vn 0.548885 -0.586406 0.595695
vn 0.794408 -0.260449 0.548710
vn 0.270251 -0.632144 0.726195
vn 0.502218 -0.542672 0.673264
vn 0.351619 -0.312004 0.882619
vn 0.070862 -0.966588 0.246346
vn 0.091378 -0.974764 0.203677
vn -0.096759 -0.667054 0.738699
vn -0.008156 -0.919653 0.392648
vn -0.152556 -0.919353 0.362654
vn -0.332135 -0.942438 -0.038689
vn -0.362995 -0.910697 0.197145
vn -0.051109 -0.970004 -0.237655
vn 0.515275 -0.833977 -0.197416
vn -0.473226 -0.880316 -0.033176
vn -0.103694 -0.993980 0.035389
vn 0.201434 -0.439012 -0.875610
vn 0.026625 -0.729627 -0.683327
vn 0.079973 -0.623814 -0.777471
vn 0.728676 -0.436673 -0.527587
vn 0.820458 -0.571532 0.014141
vn 0.069549 -0.646701 -0.759566
vn 0.373206 -0.457354 -0.807183
vn 0.832978 -0.377792 -0.404252
vn 0.608464 -0.413863 -0.677118
vn 0.584999 -0.184079 -0.789867
vn 0.768671 -0.626875 -0.127176
vn 0.973182 -0.038483 -0.226795
vn 0.889168 -0.340613 -0.305554
vn 0.931042 -0.363910 -0.027025
vn 0.845995 0.142675 0.513747
vn 0.457453 0.028050 0.888791
vn 0.115637 -0.027883 0.992900
vn 0.264203 0.100714 0.959194
vn -0.616367 -0.756366 0.219093
vn -0.529841 -0.562504 0.634711
vn -0.830127 -0.332735 0.447412
vn -0.394789 -0.608294 -0.688564
vn -0.751559 -0.578631 -0.316774
vn -0.877202 -0.222227 -0.425596
vn 0.582252 -0.066851 -0.810255
vn 0.343968 -0.141237 -0.928298
vn 0.351463 0.212228 -0.911830
vn 0.919150 0.375207 0.119928
vn 0.838252 0.484268 -0.250635
vn 0.761619 0.575419 -0.298043
usemtl leaf_b
f 1//1 43//43 45//45
f 13//13 44//44 43//43
f 15//15 45//45 44//44
f 43//43 44//44 45//45
f 12//12 46//46 48//48
f 14//14 47//47 46//46
f 13//13 48//48 47//47
f 46//46 47//47 48//48
f 6//6 49//49 51//51
f 15//15 50//50 49//49
f 14//14 51//51 50//50
f 49//49 50//50 51//51
f 13//13 47//47 44//44
f 14//14 50//50 47//47
f 15//15 44//44 50//50
f 47//47 50//50 44//44
f 1//1 45//45 53//53
f 15//15 52//52 45//45
f 17//17 53//53 52//52
f 45//45 52//52 53//53
f 6//6 54//54 49//49
f 16//16 55//55 54//54
f 15//15 49//49 55//55
f 54//54 55//55 49//49
f 2//2 56//56 58//58
f 17//17 57//57 56//56
f 16//16 58//58 57//57
f 56//56 57//57 58//58
f 15//15 55//55 52//52
f 16//16 57//57 55//55
f 17//17 52//52 57//57
f 55//55 57//57 52//52
f 1//1 53//53 60//60
f 17//17 59//59 53//53
f 19//19 60//60 59//59
f 53//53 59//59 60//60
f 2//2 61//61 56//56
f 18//18 62//62 61//61
f 17//17 56//56 62//62
f 61//61 62//62 56//56
f 8//8 63//63 65//65
f 19//19 64//64 63//63
f 18//18 65//65 64//64
f 63//63 64//64 65//65
f 17//17 62//62 59//59
f 18//18 64//64 62//62
f 19//19 59//59 64//64
f 62//62 64//64 59//59
f 1//1 60//60 67//67
f 19//19 66//66 60//60
f 21//21 67//67 66//66
f 60//60 66//66 67//67
f 8//8 68//68 63//63
f 20//20 69//69 68//68
f 19//19 63//63 69//69
f 68//68 69//69 63//63
f 11//11 70//70 72//72
f 21//21 71//71 70//70
f 20//20 72//72 71//71
f 70//70 71//71 72//72
f 19//19 69//69 66//66
f 20//20 71//71 69//69
f 21//21 66//66 71//71
f 69//69 71//71 66//66
f 1//1 67//67 43//43
f 21//21 73//73 67//67
f 13//13 43//43 73//73
f 67//67 73//73 43//43
f 11//11 74//74 70//70
f 22//22 75//75 74//74
f 21//21 70//70 75//75
f 74//74 75//75 70//70
f 12//12 48//48 77//77
f 13//13 76//76 48//48
f 22//22 77//77 76//76
f 48//48 76//76 77//77
f 21//21 75//75 73//73
f 22//22 76//76 75//75
f 13//13 73//73 76//76
f 75//75 76//76 73//73
f 2//2 58//58 79//79
f 16//16 78//78 58//58
f 24//24 79//79 78//78
f 58//58 78//78 79//79
f 6//6 80//80 54//54
f 23//23 81//81 80//80
f 16//16 54//54 81//81
f 80//80 81//81 54//54
f 10//10 82//82 84//84
f 24//24 83//83 82//82
f 23//23 84//84 83//83
f 82//82 83//83 84//84
f 16//16 81//81 78//78
f 23//23 83//83 81//81
f 24//24 78//78 83//83
f 81//81 83//83 78//78
f 6//6 51//51 86//86
f 14//14 85//85 51//51
f 26//26 86//86 85//85
f 51//51 85//85 86//86
f 12//12 87//87 46//46
f 25//25 88//88 87//87
f 14//14 46//46 88//88
f 87//87 88//88 46//46
f 5//5 89//89 91//91
f 26//26 90//90 89//89
f 25//25 91//91 90//90
f 89//89 90//90 91//91
f 14//14 88//88 85//85
f 25//25 90//90 88//88
f 26//26 85//85 90//90
f 88//88 90//90 85//85
f 12//12 77//77 93//93
f 22//22 92//92 77//77
f 28//28 93//93 92//92
f 77//77 92//92 93//93
f 11//11 94//94 74//74
f 27//27 95//95 94//94
f 22//22 74//74 95//95
f 94//94 95//95 74//74
f 3//3 96//96 98//98
f 28//28 97//97 96//96
f 27//27 98//98 97//97
f 96//96 97//97 98//98
f 22//22 95//95 92//92
f 27//27 97//97 95//95
f 28//28 92//92 97//97
f 95//95 97//97 92//92
f 11//11 72//72 100//100
f 20//20 99//99 72//72
f 30//30 100//100 99//99
f 72//72 99//99 100//100
f 8//8 101//101 68//68
f 29//29 102//102 101//101
f 20//20 68//68 102//102
f 101//101 102//102 68//68
f 7//7 103//103 105//105
f 30//30 104//104 103//103
f 29//29 105//105 104//104
f 103//103 104//104 105//105
f 20//20 102//102 99//99
f 29//29 104//104 102//102
f 30//30 99//99 104//104
f 102//102 104//104 99//99
f 8//8 65//65 107//107
f 18//18 106//106 65//65
f 32//32 107//107 106//106
f 65//65 106//106 107//107
f 2//2 108//108 61//61
f 31//31 109//109 108//108
f 18//18 61//61 109//109
f 108//108 109//109 61//61
f 9//9 110//110 112//112
f 32//32 111//111 110//110
f 31//31 112//112 111//111
f 110//110 111//111 112//112
f 18//18 109//109 106//106
f 31//31 111//111 109//109
f 32//32 106//106 111//111
f 109//109 111//111 106//106
f 4//4 113//113 115//115
f 33//33 114//114 113//113
f 35//35 115//115 114//114
f 113//113 114//114 115//115
f 10//10 116//116 118//118
f 34//34 117//117 116//116
f 33//33 118//118 117//117
f 116//116 117//117 118//118
f 5//5 119//119 121//121
f 35//35 120//120 119//119
f 34//34 121//121 120//120
f 119//119 120//120 121//121
f 33//33 117//117 114//114
f 34//34 120//120 117//117
f 35//35 114//114 120//120
f 117//117 120//120 114//114
f 4//4 115//115 123//123
f 35//35 122//122 115//115
f 37//37 123//123 122//122
f 115//115 122//122 123//123
f 5//5 124//124 119//119
f 36//36 125//125 124//124
f 35//35 119//119 125//125
f 124//124 125//125 119//119
f 3//3 126//126 128//128
f 37//37 127//127 126//126
f 36//36 128//128 127//127
f 126//126 127//127 128//128
f 35//35 125//125 122//122
f 36//36 127//127 125//125
f 37//37 122//122 127//127
f 125//125 127//127 122//122
f 4//4 123//123 130//130
f 37//37 129//129 123//123
f 39//39 130//130 129//129
f 123//123 129//129 130//130
f 3//3 131//131 126//126
f 38//38 132//132 131//131
f 37//37 126//126 132//132
f 131//131 132//132 126//126
f 7//7 133//133 135//135
f 39//39 134//134 133//133
f 38//38 135//135 134//134
f 133//133 134//134 135//135
f 37//37 132//132 129//129
f 38//38 134//134 132//132
f 39//39 129//129 134//134
f 132//132 134//134 129//129
f 4//4 130//130 137//137
f 39//39 136//136 130//130
f 41//41 137//137 136//136
f 130//130 136//136 137//137
f 7//7 138//138 133//133
f 40//40 139//139 138//138
f 39//39 133//133 139//139
f 138//138 139//139 133//133
f 9//9 140//140 142//142
f 41//41 141//141 140//140
f 40//40 142//142 141//141
f 140//140 141//141 142//142
f 39//39 139//139 136//136
f 40//40 141//141 139//139
f 41//41 136//136 141//141
f 139//139 141//141 136//136
f 4//4 137//137 113//113
f 41//41 143//143 137//137
f 33//33 113//113 143//143
f 137//137 143//143 113//113
f 9//9 144//144 140//140
f 42//42 145//145 144//144
f 41//41 140//140 145//145
f 144//144 145//145 140//140
f 10//10 118//118 147//147
f 33//33 146//146 118//118
f 42//42 147//147 146//146
f 118//118 146//146 147//147
f 41//41 145//145 143//143
f 42//42 146//146 145//145
f 33//33 143//143 146//146
f 145//145 146//146 143//143
f 5//5 121//121 89//89
f 34//34 148//148 121//121
f 26//26 89//89 148//148
f 121//121 148//148 89//89
f 10//10 84//84 116//116
f 23//23 149//149 84//84
f 34//34 116//116 149//149
f 84//84 149//149 116//116
f 6//6 86//86 80//80
f 26//26 150//150 86//86
f 23//23 80//80 150//150
f 86//86 150//150 80//80
f 34//34 149//149 148//148
f 23//23 150//150 149//149
f 26//26 148//148 150//150
f 149//149 150//150 148//148
f 3//3 128//128 96//96
f 36//36 151//151 128//128
f 28//28 96//96 151//151
f 128//128 151//151 96//96
f 5//5 91//91 124//124
f 25//25 152//152 91//91
f 36//36 124//124 152//152
f 91//91 152//152 124//124
f 12//12 93//93 87//87
f 28//28 153//153 93//93
f 25//25 87//87 153//153
f 93//93 153//153 87//87
f 36//36 152//152 151//151
f 25//25 153//153 152//152
f 28//28 151//151 153//153
f 152//152 153//153 151//151
f 7//7 135//135 103//103
f 38//38 154//154 135//135
f 30//30 103//103 154//154
f 135//135 154//154 103//103
f 3//3 98//98 131//131
f 27//27 155//155 98//98
f 38//38 131//131 155//155
f 98//98 155//155 131//131
f 11//11 100//100 94//94
f 30//30 156//156 100//100
f 27//27 94//94 156//156
f 100//100 156//156 94//94
f 38//38 155//155 154//154
f 27//27 156//156 155//155
f 30//30 154//154 156//156
f 155//155 156//156 154//154
f 9//9 142//142 110//110
f 40//40 157//157 142//142
f 32//32 110//110 157//157
f 142//142 157//157 110//110
f 7//7 105//105 138//138
f 29//29 158//158 105//105
f 40//40 138//138 158//158
f 105//105 158//158 138//138
f 8//8 107//107 101//101
f 32//32 159//159 107//107
f 29//29 101//101 159//159
f 107//107 159//159 101//101
f 40//40 158//158 157//157
f 29//29 159//159 158//158
f 32//32 157//157 159//159
f 158//158 159//159 157//157
f 10//10 147//147 82//82
f 42//42 160//160 147//147
f 24//24 82//82 160//160
f 147//147 160//160 82//82
f 9//9 112//112 144//144
f 31//31 161//161 112//112
f 42//42 144//144 161//161
f 112//112 161//161 144//144
f 2//2 79//79 108//108
f 24//24 162//162 79//79
f 31//31 108//108 162//162
f 79//79 162//162 108//108
f 42//42 161//161 160//160
f 31//31 162//162 161//161
f 24//24 160//160 162//162
f 161//161 162//162 160//160
