# tapered_cyl — generated by orchard_scene/tools/meshgen.py
mtllib ../materials/materials.mtl
o tapered_cyl
v 1.000000 0.000000 0.000000
v 0.720000 0.000000 1.000000
v 0.923880 0.382683 0.000000
v 0.665193 0.275532 1.000000
v 0.707107 0.707107 0.000000
v 0.509117 0.509117 1.000000
v 0.382683 0.923880 0.000000
v 0.275532 0.665193 1.000000
v 0.000000 1.000000 0.000000
v 0.000000 0.720000 1.000000
v -0.382683 0.923880 0.000000
v -0.275532 0.665193 1.000000
v -0.707107 0.707107 0.000000
v -0.509117 0.509117 1.000000
v -0.923880 0.382683 0.000000
v -0.665193 0.275532 1.000000
v -1.000000 0.000000 0.000000
v -0.720000 0.000000 1.000000
v -0.923880 -0.382683 0.000000
v -0.665193 -0.275532 1.000000
v -0.707107 -0.707107 0.000000
v -0.509117 -0.509117 1.000000
v -0.382683 -0.923880 0.000000
v -0.275532 -0.665193 1.000000
v -0.000000 -1.000000 0.000000
v -0.000000 -0.720000 1.000000
v 0.382683 -0.923880 0.000000
v 0.275532 -0.665193 1.000000
v 0.707107 -0.707107 0.000000
v 0.509117 -0.509117 1.000000
v 0.923880 -0.382683 0.000000
v 0.665193 -0.275532 1.000000
v 0.000000 0.000000 1.000000
v 1.000000 0.000000 1.000000
v 0.923880 0.382683 1.000000
v 0.707107 0.707107 1.000000
v 0.382683 0.923880 1.000000
v 0.000000 1.000000 1.000000
v -0.382683 0.923880 1.000000
v -0.707107 0.707107 1.000000
v -0.923880 0.382683 1.000000
v -1.000000 0.000000 1.000000
v -0.923880 -0.382683 1.000000
v -0.707107 -0.707107 1.000000
v -0.382683 -0.923880 1.000000
v -0.000000 -1.000000 1.000000
v 0.382683 -0.923880 1.000000
v 0.707107 -0.707107 1.000000
v 0.923880 -0.382683 1.000000
v 0.000000 0.000000 0.000000
v 0.720000 0.000000 0.000000
v 0.665193 0.275532 0.000000
v 0.509117 0.509117 0.000000
v 0.275532 0.665193 0.000000
v 0.000000 0.720000 0.000000
v -0.275532 0.665193 0.000000
v -0.509117 0.509117 0.000000
v -0.665193 0.275532 0.000000
v -0.720000 0.000000 0.000000
v -0.665193 -0.275532 0.000000
v -0.509117 -0.509117 0.000000
v -0.275532 -0.665193 0.000000
v -0.000000 -0.720000 0.000000
v 0.275532 -0.665193 0.000000
v 0.509117 -0.509117 0.000000
v 0.665193 -0.275532 0.000000
vn 0.984183 0.000000 0.177153
vn 0.984183 0.000000 0.177153
vn 0.909267 0.376631 0.177153
vn 0.909267 0.376631 0.177153
vn 0.695923 0.695923 0.177153
vn 0.695923 0.695923 0.177153
vn 0.376631 0.909267 0.177153
vn 0.376631 0.909267 0.177153
vn 0.000000 0.984183 0.177153
vn 0.000000 0.984183 0.177153
vn -0.376631 0.909267 0.177153
vn -0.376631 0.909267 0.177153
vn -0.695923 0.695923 0.177153
vn -0.695923 0.695923 0.177153
vn -0.909267 0.376631 0.177153
vn -0.909267 0.376631 0.177153
vn -0.984183 0.000000 0.177153
vn -0.984183 0.000000 0.177153
vn -0.909267 -0.376631 0.177153
vn -0.909267 -0.376631 0.177153
vn -0.695923 -0.695923 0.177153
vn -0.695923 -0.695923 0.177153
vn -0.376631 -0.909267 0.177153
vn -0.376631 -0.909267 0.177153
vn -0.000000 -0.984183 0.177153
vn -0.000000 -0.984183 0.177153
vn 0.376631 -0.909267 0.177153
vn 0.376631 -0.909267 0.177153
vn 0.695923 -0.695923 0.177153
vn 0.695923 -0.695923 0.177153
vn 0.909267 -0.376631 0.177153
vn 0.909267 -0.376631 0.177153
vn 0.000000 0.000000 1.000000
vn 0.000000 0.000000 1.000000
vn 0.000000 0.000000 1.000000
vn 0.000000 0.000000 1.000000
vn 0.000000 0.000000 1.000000
vn 0.000000 0.000000 1.000000
vn 0.000000 0.000000 1.000000
vn 0.000000 0.000000 1.000000
vn 0.000000 0.000000 1.000000
vn 0.000000 0.000000 1.000000
vn 0.000000 0.000000 1.000000
vn 0.000000 0.000000 1.000000
vn 0.000000 0.000000 1.000000
vn 0.000000 0.000000 1.000000
vn 0.000000 0.000000 1.000000
vn 0.000000 0.000000 1.000000
vn 0.000000 0.000000 1.000000
vn 0.000000 0.000000 -1.000000
vn 0.000000 0.000000 -1.000000
vn 0.000000 0.000000 -1.000000
vn 0.000000 0.000000 -1.000000
vn 0.000000 0.000000 -1.000000
vn 0.000000 0.000000 -1.000000
vn 0.000000 0.000000 -1.000000
vn 0.000000 0.000000 -1.000000
vn 0.000000 0.000000 -1.000000
vn 0.000000 0.000000 -1.000000
vn 0.000000 0.000000 -1.000000
vn 0.000000 0.000000 -1.000000
vn 0.000000 0.000000 -1.000000
vn 0.000000 0.000000 -1.000000
vn 0.000000 0.000000 -1.000000
vn 0.000000 0.000000 -1.000000
vn 0.000000 0.000000 -1.000000
usemtl bark
f 1//1 3//3 4//4
f 1//1 4//4 2//2
f 3//3 5//5 6//6
f 3//3 6//6 4//4
f 5//5 7//7 8//8
f 5//5 8//8 6//6
f 7//7 9//9 10//10
f 7//7 10//10 8//8
f 9//9 11//11 12//12
f 9//9 12//12 10//10
f 11//11 13//13 14//14
f 11//11 14//14 12//12
f 13//13 15//15 16//16
f 13//13 16//16 14//14
f 15//15 17//17 18//18
f 15//15 18//18 16//16
f 17//17 19//19 20//20
f 17//17 20//20 18//18
f 19//19 21//21 22//22
f 19//19 22//22 20//20
f 21//21 23//23 24//24
f 21//21 24//24 22//22
f 23//23 25//25 26//26
f 23//23 26//26 24//24
f 25//25 27//27 28//28
f 25//25 28//28 26//26
f 27//27 29//29 30//30
f 27//27 30//30 28//28
f 29//29 31//31 32//32
f 29//29 32//32 30//30
f 31//31 1//1 2//2
f 31//31 2//2 32//32
f 49//49 33//33 34//34
f 49//49 34//34 35//35
f 49//49 35//35 36//36
f 49//49 36//36 37//37
f 49//49 37//37 38//38
f 49//49 38//38 39//39
f 49//49 39//39 40//40
f 49//49 40//40 41//41
f 49//49 41//41 42//42
f 49//49 42//42 43//43
f 49//49 43//43 44//44
f 49//49 44//44 45//45
f 49//49 45//45 46//46
f 49//49 46//46 47//47
f 49//49 47//47 48//48
f 49//49 48//48 33//33
f 66//66 51//51 50//50
f 66//66 52//52 51//51
f 66//66 53//53 52//52
f 66//66 54//54 53//53
f 66//66 55//55 54//54
f 66//66 56//56 55//55
f 66//66 57//57 56//56
f 66//66 58//58 57//57
f 66//66 59//59 58//58
f 66//66 60//60 59//59
f 66//66 61//61 60//60
f 66//66 62//62 61//61
f 66//66 63//63 62//62
f 66//66 64//64 63//63
f 66//66 65//65 64//64
f 66//66 50//50 65//65
